<svg id="Grupo_11" data-name="Grupo 11" xmlns="http://www.w3.org/2000/svg" width="13.469" height="13.47" viewBox="0 0 13.469 13.47">
  <path id="Trazado_10" data-name="Trazado 10" d="M1341.555,151.363c-.735-.739-1.477-1.47-2.208-2.214a.323.323,0,0,0-.547,0c-.371.387-.756.76-1.135,1.139l-7.467,7.466a1.018,1.018,0,0,0-.027,1.411l1.281,1.382a1.018,1.018,0,0,0,1.467.027q2.69-2.7,5.387-5.389,1.621-1.621,3.242-3.243C1341.81,151.683,1341.811,151.62,1341.555,151.363Z" transform="translate(-1328.277 -149)" fill="#545e6fbd"/>
  <path id="Trazado_11" data-name="Trazado 11" d="M1316.89,234.6c-.125.884-.255,1.768-.383,2.652-.032.22.05.326.281.292.806-.116,1.61-.243,2.417-.342a1.381,1.381,0,0,0,.25-.054l-2.519-2.718A.721.721,0,0,0,1316.89,234.6Z" transform="translate(-1316.5 -224.085)" fill="#545e6fbd"/>
</svg>
